<svg width="51" height="50" viewBox="0 0 51 50" fill="none" xmlns="http://www.w3.org/2000/svg">
<g id="icon10">
<path id="Rectangle 21" d="M11.2068 48.5617V43.7159C11.2068 43.1636 10.7591 42.7159 10.2068 42.7159H10.0092C6.14401 42.7159 3.01033 39.5831 3.00925 35.7179L3.00195 9.50195C3.00087 5.63519 6.13519 2.5 10.0019 2.5H40.4896C44.3563 2.5 47.4906 5.63519 47.4896 9.50195L47.4823 35.7179C47.4812 39.5831 44.3475 42.7159 40.4823 42.7159H40.2847C39.7324 42.7159 39.2847 43.1636 39.2847 43.7159V48.5617M15.5 42.7159H34.9915" stroke="#0F256D" stroke-width="2" stroke-linecap="round"/>
<rect id="Rectangle 20" x="8.83337" y="8.30664" width="32.9858" height="20.3019" stroke="#FC006B" stroke-width="2"/>
<ellipse id="Ellipse 10" cx="12.7013" cy="34.3724" rx="1.3416" ry="1.3416" fill="#0F256D"/>
<ellipse id="Ellipse 11" cx="17.8845" cy="34.3724" rx="1.3416" ry="1.3416" fill="#0F256D"/>
<ellipse id="Ellipse 12" cx="38.0678" cy="34.3724" rx="1.3416" ry="1.3416" fill="#0F256D"/>
<path id="Vector 29" d="M12.7007 21.1685C22.2357 11.7382 19.6183 21.2109 22.6097 23.7036C25.601 26.1964 27.5329 16.5991 29.2155 14.1064C30.8981 11.6136 32.7677 20.65 38.3031 21.1684" stroke="#FC006B" stroke-width="2" stroke-linecap="round" stroke-linejoin="round"/>
</g>
</svg>
