<svg width="50" height="50" viewBox="0 0 50 50" fill="none" xmlns="http://www.w3.org/2000/svg">
<g id="icon13">
<path id="Vector 35" d="M6.23588 8.80146C-2.17089 11.7439 4.03679 37.7321 6.23584 23.4376C7.83436 13.0468 29.0366 20.4563 30.4595 14.8997C31.2272 11.9185 30.105 6.76429 35.8703 5.43872V8.47224C41.9993 8.47224 39.2683 12.2641 43.0652 13.7177C43.1834 15.0498 43.1148 16.8804 39.0152 17.6992C35.8703 18.3273 40.434 24.5626 36.4592 30.5622C31.3699 40.6866 35.8703 41.4365 35.109 43.3114H32.4204C30.7525 43.3114 29.9961 36.6216 30.8828 33.187M38.8725 43.3114H41.3945C41.7954 41.2097 37.5841 41.8115 38.334 32.4371M4.78786 31.4701C4.78786 31.4701 3.74159 43.3114 6.67555 43.3114H9.68064C9.96159 41.6837 8.36822 41.8115 8.18073 39.9366C7.50577 33.187 11.2858 35.6552 13.4334 30.5622C15.581 25.4692 19.2816 32.0357 28.3449 32.0357M12.2898 36.1869C11.9305 42.1865 14.7924 41.2097 14.3915 43.3114H12.2898" stroke="#0F256D" stroke-width="2" stroke-linecap="round" stroke-linejoin="round"/>
<path id="Vector 39" d="M5.33978 46.9065H44.6603" stroke="#00DEFC" stroke-width="2" stroke-linecap="round"/>
<path id="Vector 40" d="M8.75 48.3333V47.3003" stroke="#00DEFC" stroke-width="2" stroke-linecap="round"/>
<path id="Vector 41" d="M19.5833 48.3333V47.3003" stroke="#00DEFC" stroke-width="2" stroke-linecap="round"/>
<path id="Vector 42" d="M30.4167 48.3333V47.3003" stroke="#00DEFC" stroke-width="2" stroke-linecap="round"/>
<path id="Vector 43" d="M41.25 48.3333V47.3003" stroke="#00DEFC" stroke-width="2" stroke-linecap="round"/>
<path id="Vector 39_2" d="M46.9063 42.9167L46.9063 3.59627" stroke="#00DEFC" stroke-width="2" stroke-linecap="round"/>
<path id="Vector 40_2" d="M48.3331 39.5063H47.3001" stroke="#00DEFC" stroke-width="2" stroke-linecap="round"/>
<path id="Vector 41_2" d="M48.3331 28.6731H47.3001" stroke="#00DEFC" stroke-width="2" stroke-linecap="round"/>
<path id="Vector 42_2" d="M48.3331 17.8398H47.3001" stroke="#00DEFC" stroke-width="2" stroke-linecap="round"/>
<path id="Vector 43_2" d="M48.3331 7.00635H47.3001" stroke="#00DEFC" stroke-width="2" stroke-linecap="round"/>
</g>
</svg>
