<svg width="120" height="120" viewBox="0 0 120 120" fill="none" xmlns="http://www.w3.org/2000/svg">
<g id="icon2-4">
<path id="Vector 19 (Stroke)" fill-rule="evenodd" clip-rule="evenodd" d="M58.7719 5.91054C59.4941 5.34869 60.5056 5.34867 61.2278 5.91048C61.2277 5.91034 61.228 5.91062 61.2278 5.91048L61.237 5.91759L61.2748 5.9466C61.3096 5.97325 61.3636 6.01439 61.4363 6.06915C61.5818 6.17866 61.8021 6.34262 62.0934 6.55414C62.6761 6.97722 63.5426 7.59024 64.6622 8.33811C66.9023 9.83448 70.1507 11.8672 74.1632 13.9977C82.2057 18.268 93.2316 22.8846 105.313 24.4195C106.181 24.5299 106.877 25.1927 107.03 26.0551L105.06 26.4035C107.03 26.0551 107.03 26.0562 107.03 26.0575L107.031 26.0615L107.033 26.0745L107.041 26.12C107.048 26.1588 107.057 26.2148 107.069 26.2874C107.093 26.4326 107.126 26.6443 107.167 26.9186C107.249 27.467 107.36 28.2658 107.48 29.2833C107.719 31.3177 107.995 34.2297 108.141 37.7651C108.434 44.8265 108.216 54.4221 106.151 64.499C102.016 84.6806 90.3794 107.055 60.4803 114.452C60.1648 114.53 59.835 114.53 59.5195 114.452C29.6204 107.055 17.9833 84.6806 13.8484 64.499C11.7838 54.4221 11.5657 44.8265 11.8585 37.7651C12.0052 34.2297 12.2804 31.3177 12.52 29.2833C12.6398 28.2658 12.7508 27.467 12.8326 26.9186C12.8735 26.6443 12.9071 26.4326 12.9308 26.2874C12.9427 26.2148 12.9521 26.1588 12.9587 26.12L12.9665 26.0745L12.9688 26.0615L12.9695 26.0575C12.9697 26.0562 12.9699 26.0551 14.9393 26.4035L12.9699 26.0551C13.1225 25.1927 13.8184 24.5299 14.6873 24.4195C26.7682 22.8846 37.7941 18.268 45.8366 13.9977C49.8491 11.8672 53.0975 9.83448 55.3376 8.33811C56.4572 7.59024 57.3237 6.97722 57.9064 6.55414C58.1977 6.34262 58.418 6.17866 58.5635 6.06915C58.6362 6.01439 58.6902 5.97325 58.725 5.9466L58.7628 5.91759L58.7719 5.91054ZM16.6925 28.1813C16.6328 28.6145 16.5645 29.1403 16.4925 29.7512C16.263 31.7 15.997 34.5102 15.8551 37.9308C15.571 44.7812 15.7871 54.0327 17.767 63.6961C21.6983 82.8838 32.4889 103.436 59.9999 110.449C87.5109 103.436 98.3015 82.8838 102.233 63.6961C104.213 54.0327 104.429 44.7812 104.145 37.9308C104.003 34.5102 103.737 31.7 103.507 29.7512C103.435 29.1403 103.367 28.6145 103.307 28.1813C91.1736 26.3888 80.2451 21.7559 72.2874 17.5306C68.1364 15.3266 64.7721 13.2218 62.4404 11.6643C61.4255 10.9864 60.6053 10.4115 59.9999 9.97632C59.3945 10.4115 58.5743 10.9864 57.5594 11.6643C55.2277 13.2218 51.8634 15.3266 47.7124 17.5306C39.7547 21.7559 28.8262 26.3888 16.6925 28.1813Z" fill="#6B50AE"/>
<path id="Vector 7 (Stroke)" fill-rule="evenodd" clip-rule="evenodd" d="M60.18 25.7178C59.7033 26.0972 59.4255 26.6733 59.4255 27.2826V37.3278C54.2625 37.515 50.5927 38.4452 47.8788 39.9903C44.765 41.7631 43.1448 44.2119 41.9502 46.6336C41.5362 47.473 41.1726 48.2932 40.8199 49.0887C39.1414 52.8751 37.7099 56.1043 32.2618 58.1928C31.5482 58.4663 31.0529 59.1225 30.9855 59.8837C30.7449 62.599 30.624 66.3634 33.0981 69.8592C35.5595 73.3374 40.2704 76.119 48.5989 77.7847C51.1177 78.2885 52.3886 79.2626 53.1057 80.3778C53.8764 81.5764 54.2171 83.257 54.2183 85.5552C54.2193 87.5751 53.9655 89.8227 53.6824 92.3295C53.6434 92.6744 53.6039 93.0241 53.5645 93.3789C53.245 96.2507 52.9378 99.3839 53.0613 102.515C53.1049 103.619 54.0349 104.478 55.1386 104.435C56.2423 104.391 57.1018 103.461 57.0582 102.357C56.9477 99.556 57.221 96.6876 57.5399 93.8212C57.5782 93.4771 57.6173 93.132 57.6565 92.7863C57.9366 90.3139 58.2194 87.8175 58.2183 85.5531C58.2169 82.9724 57.8563 80.3702 56.4702 78.2145C55.0305 75.9753 52.6891 74.5235 49.3834 73.8624C41.5024 72.2862 37.9728 69.8231 36.3631 67.5485C35.0154 65.6441 34.7887 63.5692 34.887 61.4301C41.045 58.6426 43.0031 54.1424 44.6064 50.4576C44.9208 49.7351 45.2215 49.0439 45.5375 48.4032C46.5492 46.3524 47.7115 44.6884 49.8578 43.4664C52.066 42.2093 55.5428 41.2927 61.4255 41.2927C62.5301 41.2927 63.4255 40.3973 63.4255 39.2927V29.8619C68.8108 31.4047 72.4708 33.5636 75.0644 36.0256C78.0336 38.8442 79.7473 42.1941 80.9789 45.8582C81.5975 47.6987 82.0884 49.599 82.5615 51.551C82.6765 52.0254 82.791 52.5053 82.9062 52.9884C83.2588 54.4665 83.6183 55.9736 84.0201 57.4397C85.0908 61.3461 86.5406 65.2848 89.3593 68.6255C90.0716 69.4697 91.3334 69.5767 92.1776 68.8644C93.0218 68.1521 93.1288 66.8903 92.4165 66.0461C90.1603 63.3719 88.8979 60.1042 87.8779 56.3824C87.4953 54.9865 87.1578 53.572 86.8093 52.1109C86.6912 51.6159 86.5718 51.1156 86.449 50.6088C85.9698 48.632 85.4462 46.5944 84.7704 44.5838C83.4132 40.546 81.4184 36.542 77.8183 33.1246C74.218 29.7069 69.1542 27.0097 61.8742 25.3336C61.2804 25.1969 60.6567 25.3383 60.18 25.7178Z" fill="#AEA0D1"/>
</g>
</svg>
