<svg width="51" height="50" viewBox="0 0 51 50" fill="none" xmlns="http://www.w3.org/2000/svg">
<g id="icon8">
<path id="Rectangle 18" d="M8.37952 8.93652C8.37952 6.17509 10.6181 3.93652 13.3795 3.93652H37.6204C40.3819 3.93652 42.6204 6.1751 42.6204 8.93652V29.0332C42.6204 31.6785 41.5723 34.216 39.7055 36.0902L32.7028 43.1208C30.8263 45.0048 28.2768 46.0638 25.6177 46.0638H13.3795C10.6181 46.0638 8.37952 43.8252 8.37952 41.0638V8.93652Z" stroke="#0F256D" stroke-width="2"/>
<path id="Vector 22" d="M28.5887 45.6032V36.7661C28.5887 34.0047 30.8273 31.7661 33.5887 31.7661H42.0814" stroke="#0F256D" stroke-width="2" stroke-linecap="round" stroke-linejoin="round"/>
<path id="Vector 27" d="M15.7927 27.1738L17.5118 28.532L20.8125 22.5322" stroke="#FC006B" stroke-width="2" stroke-linecap="round" stroke-linejoin="round"/>
<path id="Vector 28" d="M15.7927 15.1767L17.5118 16.535L20.8125 10.5352" stroke="#FC006B" stroke-width="2" stroke-linecap="round" stroke-linejoin="round"/>
<path id="Vector 25" d="M23.522 14.4692H35.2609M23.522 26.4663H32.251" stroke="#FC006B" stroke-width="2" stroke-linecap="round" stroke-linejoin="round"/>
</g>
</svg>
