<svg width="50" height="50" viewBox="0 0 50 50" fill="none" xmlns="http://www.w3.org/2000/svg">
<g id="icon14">
<path id="Rectangle 24" d="M12.4254 24.9775H7.82193C5.06051 24.9775 2.82193 27.2161 2.82193 29.9775V36.4871C2.82193 39.2485 5.06051 41.4871 7.82193 41.4871H14.3302C17.0916 41.4871 19.3302 39.2485 19.3302 36.4871V30.4149" stroke="#0F256D" stroke-width="2" stroke-linecap="round"/>
<path id="Vector 27" d="M25.7759 10.8238L28.9798 13.3551L35.1313 2.17334" stroke="#00DEFC" stroke-width="2" stroke-linecap="round" stroke-linejoin="round"/>
<path id="Rectangle 25" d="M39.6491 28.1848H33.8102C31.0488 28.1848 28.8102 30.4234 28.8102 33.1848V41.8182C28.8102 44.5796 31.0488 46.8182 33.8102 46.8182H42.4421C45.2036 46.8182 47.4421 44.5796 47.4421 41.8182V34.3216" stroke="#0F256D" stroke-width="2" stroke-linecap="round"/>
<path id="Rectangle 23" d="M30.0065 3.5415H26.4926C23.7312 3.5415 21.4926 5.78008 21.4926 8.54151V13.1779C21.4926 15.9394 23.7312 18.178 26.4926 18.178H31.1279C33.8893 18.178 36.1279 15.9394 36.1279 13.1779V8.36196" stroke="#0F256D" stroke-width="2" stroke-linecap="round"/>
<path id="Vector 24" d="M7.55242 33.7304L11.1663 36.5857L18.1051 23.9729" stroke="#00DEFC" stroke-width="2" stroke-linecap="round" stroke-linejoin="round"/>
<path id="Vector 28" d="M33.8473 38.2647L37.9261 41.4873L45.7574 27.252" stroke="#00DEFC" stroke-width="2" stroke-linecap="round" stroke-linejoin="round"/>
</g>
</svg>
