<svg width="60" height="60" viewBox="0 0 60 60" fill="none" xmlns="http://www.w3.org/2000/svg">
<g id="icon5">
<path id="Vector 12" d="M18.1575 24.0279C18.2582 23.4063 18.7722 21.871 20.022 20.7019C21.5842 19.2404 17.4015 16.0656 18.9133 3.92065C18.9133 3.92065 21.5338 3.92066 25.7165 8.10337H30H34.2835C38.4662 3.92066 41.0867 3.92065 41.0867 3.92065C42.5985 16.0656 38.4158 19.2404 39.978 20.7019C41.2278 21.871 41.7418 23.4063 41.8426 24.0279M23.5453 15.778C24.2927 14.0499 27.5811 14.0499 27.5811 16.4184M36.7821 15.778C36.0347 14.0499 32.7463 14.0499 32.7463 16.4184" stroke="#FC006B" stroke-width="2" stroke-linecap="round" stroke-linejoin="round"/>
<path id="Vector 13" d="M28.8883 20.3708C27.6085 19.0001 32.9998 19.1118 31.688 20.3708C30.3762 21.6299 30.1682 21.7416 28.8883 20.3708Z" fill="#FC006B"/>
<path id="Vector 11" d="M30 31.9985L23.0417 40.2295L4.06555 31.9985L11.3641 23.2403M30 31.9985L11.3641 23.2403M30 31.9985L36.9584 40.2295L55.9345 31.9985L48.636 23.2403M30 31.9985L48.636 23.2403M30 31.9985V57.725M11.3641 23.2403L14.6231 21.893M48.636 23.2403L44.8323 21.893M30 57.725L49.9087 50.0545V35.4893M30 57.725L10.0913 50.0545V35.4893" stroke="#257FDC" stroke-width="2" stroke-linecap="round" stroke-linejoin="round"/>
</g>
</svg>
