<svg width="60" height="60" viewBox="0 0 60 60" fill="none" xmlns="http://www.w3.org/2000/svg">
<g id="icon">
<path id="Vector 5" d="M43.5624 26.1369C43.3909 20.9338 53.4741 12.5644 55.617 16.6719C57.7599 20.7793 46.5985 21.4937 48.8308 29.1728C50.1 33.539 57.6704 53.6389 42.223 55.2462H21.8645M42.223 47.4777C45.0818 40.4021 48.2885 30.321 26.7756 20.2436C19.4282 16.8018 25.5255 6.84973 13.8903 4.17096V8.45699C5.24221 8.45699 9.09568 13.8145 3.73814 15.8682C3.57137 17.7503 3.66817 20.3367 9.45285 21.4937C15.1706 22.6372 8.94083 30.5911 13.247 35.4754M16.0605 55.2462H11.0601C11.0717 54.0072 11.7955 51.3153 14.5978 50.459" stroke="#257FDC" stroke-width="2" stroke-linecap="round" stroke-linejoin="round"/>
<path id="Ellipse 3" d="M17.9141 41.5224C17.9141 42.5317 16.8213 43.6858 15.0135 43.6858C13.2058 43.6858 12.113 42.5317 12.113 41.5224C12.113 40.5131 13.2058 39.359 15.0135 39.359C16.8213 39.359 17.9141 40.5131 17.9141 41.5224Z" stroke="#FC006B" stroke-width="2"/>
<path id="Ellipse 4" d="M21.3573 45.1584C22.3666 45.1584 23.5207 46.2511 23.5207 48.0589C23.5207 49.8667 22.3666 50.9594 21.3573 50.9594C20.348 50.9594 19.1938 49.8667 19.1938 48.0589C19.1938 46.2511 20.348 45.1584 21.3573 45.1584Z" stroke="#FC006B" stroke-width="2"/>
<path id="Vector 8" d="M18.9141 40.9388L32.9954 36.5572M26.4987 30L22.0601 44.6858" stroke="#FC006B" stroke-width="2" stroke-linecap="round" stroke-linejoin="round"/>
</g>
</svg>
