<svg width="50" height="50" viewBox="0 0 50 50" fill="none" xmlns="http://www.w3.org/2000/svg">
<g id="no eat">
<path id="Subtract" fill-rule="evenodd" clip-rule="evenodd" d="M12.0847 18.2467C11.7458 18.9549 11.5417 19.7399 11.5057 20.5686H10.2381C9.32038 20.5686 8.52042 21.1932 8.29783 22.0835L4.91217 35.6261C4.5966 36.8884 5.55132 38.1112 6.85246 38.1112H31.9493L29.9493 36.1112H6.85246L10.2381 22.5686H16.4066L14.4066 20.5686H13.5086C13.5259 20.3036 13.5691 20.0458 13.6355 19.7974L12.0847 18.2467ZM20.0635 20.5686H36.4914C36.355 18.4829 34.6201 16.8335 32.5 16.8335C31.6753 16.8335 30.9116 17.082 30.2761 17.5081C30.0191 17.6803 29.6969 17.724 29.4034 17.6263C29.1098 17.5285 28.8781 17.3005 28.7756 17.0086C28.2285 15.4492 26.7432 14.3335 25 14.3335C23.2567 14.3335 21.7715 15.4492 21.2243 17.0086C21.1219 17.3005 20.8901 17.5285 20.5966 17.6263C20.3031 17.724 19.9809 17.6803 19.7239 17.5081C19.0884 17.082 18.3247 16.8335 17.5 16.8335C17.1417 16.8335 16.7944 16.8806 16.4639 16.969L14.9132 15.4182C15.6964 15.0434 16.5737 14.8335 17.5 14.8335C18.3225 14.8335 19.1077 14.9995 19.8226 15.2999C20.8642 13.5258 22.792 12.3335 25 12.3335C27.208 12.3335 29.1357 13.5258 30.1774 15.2999C30.8923 14.9995 31.6775 14.8335 32.5 14.8335C35.7249 14.8335 38.3556 17.3778 38.4942 20.5686H39.7619C40.6796 20.5686 41.4796 21.1932 41.7021 22.0835L45.0878 35.6261C45.4034 36.8884 44.4487 38.1112 43.1475 38.1112H37.6061L35.6061 36.1112H43.1475L39.7619 22.5686H22.0635L20.0635 20.5686Z" fill="#0F256D"/>
<path id="Vector 20" d="M8.33334 8.3335L41.6667 41.6668" stroke="#FC006B" stroke-width="2" stroke-linecap="round" stroke-linejoin="round"/>
</g>
</svg>
