<svg width="51" height="50" viewBox="0 0 51 50" fill="none" xmlns="http://www.w3.org/2000/svg">
<g id="icon11" clip-path="url(#clip0_502_1393)">
<path id="Vector 35" d="M6.91651 4.5701C-2.42491 7.83963 4.47293 36.7172 6.91646 20.8335C8.69271 9.2874 32.2522 17.5207 33.8333 11.3464C34.6864 8.03367 33.4394 2.30644 39.8456 0.833496V4.20428C46.656 4.20428 43.6214 8.41776 47.8405 10.0329C47.9718 11.5131 47.8956 13.5472 43.3401 14.4571C39.8456 15.155 44.9167 22.0835 40.5 28.7502C34.8449 40.0002 39.8456 40.8335 38.9997 42.9168H36.0122C34.1589 42.9168 33.3184 35.4832 34.3036 31.6668M43.1816 42.9168H45.984C46.4294 40.5815 41.75 41.2502 42.5833 30.8335M5.3075 29.759C5.3075 29.759 4.14491 42.9168 7.40506 42.9168H10.7443C11.0564 41.1081 9.28592 41.2502 9.07759 39.1668C8.32759 31.6668 12.5278 34.4094 14.9142 28.7502C17.3006 23.0909 21.4127 30.3875 31.4836 30.3875M13.6435 35.0002C13.2443 41.6668 16.4243 40.5815 15.9789 42.9168H13.6435" stroke="#0F256D" stroke-width="2" stroke-linecap="round" stroke-linejoin="round"/>
<path id="Vector 31" d="M3.83337 45.8335H8.41671M48 45.8335H30.5M26.75 45.8335H11.75" stroke="#FC006B" stroke-width="2" stroke-linecap="round" stroke-linejoin="round"/>
<path id="Vector 32" d="M9.66663 49.1665H22.1666M40.5 49.1665H26.3333" stroke="#FC006B" stroke-width="2" stroke-linecap="round" stroke-linejoin="round"/>
</g>
<defs>
<clipPath id="clip0_502_1393">
<rect width="50" height="50" fill="white" transform="translate(0.5)"/>
</clipPath>
</defs>
</svg>
