<svg width="120" height="120" viewBox="0 0 120 120" fill="none" xmlns="http://www.w3.org/2000/svg">
<g id="icon2">
<path id="Vector 7 (Stroke)" fill-rule="evenodd" clip-rule="evenodd" d="M26.9427 2.84997C26.466 3.22942 26.1883 3.8055 26.1883 4.41481V11.0366C22.7302 11.2164 20.1784 11.8815 18.2362 12.9872C15.8754 14.3313 14.6534 16.1915 13.7746 17.9731C13.4631 18.6046 13.1939 19.2096 12.9371 19.7871C11.7486 22.4588 10.8224 24.5411 7.16814 25.9419C6.45459 26.2154 5.95927 26.8717 5.89182 27.6329C5.73605 29.3909 5.63195 31.8959 6.99473 34.3301C7.53432 35.2939 8.75306 35.6378 9.71687 35.0982C10.6807 34.5586 11.0246 33.3398 10.485 32.376C9.93062 31.3859 9.7842 30.3188 9.8074 29.1568C14.1673 27.055 15.6081 23.7301 16.7241 21.1546C16.9427 20.6503 17.1488 20.1747 17.3619 19.7426C18.0577 18.332 18.8218 17.2567 20.2153 16.4633C21.6705 15.6348 24.0398 14.9869 28.1883 14.9869C29.2928 14.9869 30.1883 14.0914 30.1883 12.9869V7.02527C34.2239 8.29403 36.7518 10.0713 38.453 12.0381C40.5042 14.4095 41.5271 17.249 42.3542 20.42C42.5556 21.1921 42.7439 21.9948 42.9366 22.816C44.2567 28.4438 45.78 34.9373 53.1105 38.3712C61.798 42.4407 68.3815 46.481 73.3195 50.4263C74.1825 51.1157 75.441 50.9751 76.1305 50.1121C76.8199 49.2491 76.6793 47.9906 75.8163 47.3012C70.5727 43.1118 63.7019 38.9154 54.8073 34.7489C49.3396 32.1877 48.2625 27.7456 46.886 22.0683C46.6778 21.2099 46.4628 20.3231 46.2247 19.4104C45.3548 16.0752 44.1447 12.5039 41.4783 9.42132C38.7829 6.30515 34.7708 3.87798 28.637 2.4658C28.0432 2.3291 27.4195 2.47052 26.9427 2.84997ZM110.264 43.8564C109.237 44.2629 108.734 45.4251 109.14 46.4521C110.074 48.8103 109.75 50.3707 108.945 51.7183C108.047 53.2201 106.522 54.529 104.599 56.1791C104.536 56.233 104.473 56.2873 104.409 56.342C102.521 57.9623 100.306 59.8962 98.9047 62.4371C97.4342 65.1026 96.9225 68.2944 98.0795 72.2744C98.3168 73.091 98.6259 74.0862 98.9785 75.2215C100.404 79.81 102.54 86.6875 103.527 93.3192C104.142 97.4551 104.272 101.281 103.594 104.26C102.929 107.179 101.568 109.026 99.3227 109.834C98.2834 110.208 97.7442 111.354 98.1184 112.394C98.4925 113.433 99.6383 113.972 100.678 113.598C104.617 112.18 106.638 108.906 107.494 105.148C108.336 101.451 108.125 97.0449 107.483 92.7304C106.444 85.7489 104.173 78.4466 102.754 73.8867C102.42 72.8111 102.133 71.888 101.92 71.1578C101.047 68.1524 101.473 66.0624 102.407 64.3692C103.41 62.5513 105.066 61.0497 107.014 59.3771C107.139 59.2704 107.265 59.1625 107.392 59.0535C109.134 57.5637 111.133 55.8544 112.378 53.7702C113.836 51.3301 114.239 48.4652 112.86 44.98C112.453 43.953 111.291 43.4499 110.264 43.8564Z" fill="#A0B8E1"/>
<path id="Vector 8 (Stroke)" fill-rule="evenodd" clip-rule="evenodd" d="M25.1033 21.0988C24.6265 21.4782 24.3488 22.0543 24.3488 22.6636V28.516C21.2715 28.6934 18.9726 29.299 17.2065 30.3045C15.0152 31.552 13.883 33.2796 13.0753 34.917C12.7867 35.5021 12.5388 36.0587 12.3035 36.587C11.226 39.0066 10.4134 40.8311 7.16309 42.077C6.44953 42.3506 5.95422 43.0068 5.88676 43.768C5.72813 45.5583 5.62447 48.2248 7.38451 50.7118C9.13201 53.181 12.3977 55.0429 17.8835 56.14C19.9538 56.5541 20.7211 57.3865 21.1218 58.3359C21.6229 59.5232 21.6901 61.2195 21.5555 63.6388C21.5236 64.212 21.4797 64.8188 21.4338 65.4535C21.1196 69.7955 20.711 75.4425 23.4102 80.5503C27.6119 88.5012 29.3225 93.9456 29.7005 97.7514C30.0688 101.459 29.1747 103.591 28.047 105.08C27.4501 105.868 26.7414 106.536 25.9631 107.197C25.7426 107.384 25.4975 107.585 25.2427 107.795C24.6807 108.256 24.0716 108.756 23.575 109.229C22.8074 109.96 22.0119 110.883 21.5849 112.102C21.1398 113.372 21.1716 114.736 21.6513 116.206C21.9199 117.028 22.6872 117.585 23.5526 117.585H30.2971C31.4016 117.585 32.2971 116.69 32.2971 115.585C32.2971 114.48 31.4016 113.585 30.2971 113.585H25.3131C25.3267 113.527 25.3427 113.473 25.3599 113.424C25.4824 113.075 25.757 112.675 26.3333 112.126C26.7273 111.751 27.1359 111.416 27.6207 111.019C27.9014 110.789 28.2076 110.538 28.5515 110.247C29.4179 109.511 30.3809 108.624 31.2358 107.495C33.0117 105.15 34.1421 101.999 33.6809 97.356C33.2295 92.8113 31.2568 86.8372 26.9468 78.6814C24.8244 74.6652 25.1223 70.2741 25.4222 65.8534C25.4673 65.1895 25.5124 64.525 25.5493 63.861C25.6812 61.4903 25.7106 58.9212 24.807 56.7805C23.8031 54.402 21.7988 52.8439 18.668 52.2177C13.6297 51.2101 11.5453 49.6668 10.6496 48.4011C9.98338 47.4597 9.79694 46.4328 9.80769 45.2838C13.7617 43.3364 15.0846 40.2792 16.0908 37.954C16.2878 37.4988 16.4726 37.0717 16.6626 36.6865C17.2873 35.4201 17.9616 34.4774 19.1855 33.7806C20.4712 33.0486 22.591 32.4612 26.3488 32.4612C27.4533 32.4612 28.3488 31.5658 28.3488 30.4612V25.2857C31.8565 26.4258 34.0605 27.995 35.5495 29.7164C37.3875 31.8413 38.3096 34.3913 39.06 37.2683C39.2415 37.9642 39.4115 38.6902 39.586 39.435C40.7841 44.5514 42.1894 50.5522 48.9427 53.7157C68.308 62.7871 76.0386 71.6328 78.5699 79.3495C81.1069 87.0835 78.6401 94.268 76.0403 100.703C75.6265 101.727 76.1213 102.892 77.1454 103.306C78.1695 103.72 79.3352 103.225 79.749 102.201C82.3503 95.7628 85.4011 87.3408 82.3707 78.1027C79.3346 68.8475 70.4128 59.356 50.6395 50.0934C45.7491 47.8026 44.7899 43.8533 43.5353 38.6869C43.3453 37.9049 43.1486 37.095 42.9305 36.2588C42.1373 33.2175 41.028 29.9358 38.5748 27.0996C36.0925 24.2298 32.4057 22.0057 26.7975 20.7146C26.2037 20.5779 25.58 20.7193 25.1033 21.0988ZM99.5772 45.5172C99.936 45.6323 100.239 45.851 100.489 46.3317C100.793 46.913 100.789 47.2699 100.733 47.5193C100.665 47.8222 100.456 48.2326 99.9416 48.787C99.426 49.342 98.7137 49.9257 97.8089 50.595C97.3626 50.9253 96.8906 51.2611 96.3889 51.618L96.3698 51.6316C95.8788 51.9808 95.3615 52.3487 94.8425 52.7308C92.7703 54.2567 90.4406 56.1673 88.9481 58.7532C87.3951 61.4438 86.8333 64.7092 87.9957 68.7079C88.1771 69.332 88.4192 70.1052 88.7002 71.0032C90.2906 76.0841 93.1306 85.1575 93.3106 93.7912C93.416 98.8483 92.5919 103.471 90.2864 106.952C88.0559 110.321 84.2602 112.889 77.7892 113.585H43.0587C43.1477 113.227 43.2571 112.959 43.3684 112.753C43.615 112.297 43.9633 111.971 44.5417 111.609C44.748 111.479 45.013 111.338 45.319 111.175C46.5679 110.508 48.4989 109.476 49.9007 107.431C51.0095 105.813 51.1033 103.669 51.1116 101.911C51.1143 101.336 51.1064 100.77 51.0984 100.204C51.0789 98.8196 51.0595 97.4419 51.1973 95.9684C51.3844 93.9664 51.8562 92.0122 52.9553 90.1962C54.0462 88.3936 55.834 86.5971 58.8571 85.0307C59.8378 84.5226 60.2209 83.3156 59.7127 82.3349C59.2046 81.3541 57.9976 80.971 57.0168 81.4792C53.4243 83.3406 51.0514 85.6166 49.5332 88.1251C48.0231 90.6202 47.4372 93.2157 47.2146 95.596C47.0554 97.2996 47.0794 99.0155 47.0998 100.465C47.107 100.978 47.1137 101.458 47.1117 101.892C47.1028 103.776 46.924 104.699 46.6013 105.17C45.8013 106.337 44.9942 106.775 43.8916 107.373C43.4532 107.611 42.9681 107.874 42.4182 108.219C41.5059 108.79 40.5423 109.57 39.8498 110.851C39.1717 112.105 38.8563 113.648 38.8563 115.585C38.8563 116.69 39.7517 117.585 40.8563 117.585H77.8946C77.9638 117.585 78.0329 117.581 78.1016 117.574C85.6206 116.792 90.614 113.702 93.6214 109.161C96.5655 104.715 97.4232 99.1511 97.3097 93.7078C97.1162 84.4255 94.0491 74.6697 92.4799 69.6782C92.2164 68.8399 91.9951 68.136 91.8367 67.5913C90.9685 64.6046 91.4221 62.4685 92.4124 60.7527C93.4632 58.9322 95.2049 57.4313 97.2142 55.9518C97.7064 55.5895 98.2008 55.2378 98.6994 54.8832L98.7072 54.8776C99.2034 54.5247 99.7063 54.167 100.188 53.8106C101.139 53.1068 102.096 52.3451 102.872 51.5092C103.649 50.6726 104.356 49.6464 104.636 48.3933C104.929 47.0868 104.707 45.7684 104.036 44.4815C103.312 43.094 102.188 42.1539 100.799 41.7083C99.4698 41.2821 98.0443 41.3525 96.6956 41.6651C94.0192 42.2854 91.0962 43.9859 88.4633 46.1069C85.8014 48.2514 83.2696 50.9597 81.4071 53.7927C79.5761 56.5778 78.2347 59.7239 78.3325 62.6922C78.3689 63.7961 79.2933 64.6616 80.3973 64.6252C81.5012 64.5888 82.3667 63.6644 82.3303 62.5604C82.2722 60.7957 83.1068 58.4887 84.7495 55.9901C86.3606 53.5393 88.6001 51.1332 90.9727 49.2219C93.3742 47.2872 95.7488 45.9906 97.5987 45.5618C98.5132 45.3499 99.158 45.3828 99.5772 45.5172Z" fill="#406BB2"/>
</g>
</svg>
