<svg width="120" height="120" viewBox="0 0 120 120" fill="none" xmlns="http://www.w3.org/2000/svg">
<path fill-rule="evenodd" clip-rule="evenodd" d="M16.8562 62.5849C18.7126 61.5131 20.9997 61.5131 22.8562 62.5849L36.3285 70.3631L34.3285 73.8272L20.8562 66.049C20.2373 65.6917 19.475 65.6917 18.8562 66.049L7.38379 72.6725C6.76499 73.0298 6.38379 73.69 6.38379 74.4046V87.6517C6.38379 88.3662 6.76499 89.0265 7.38379 89.3838L18.8562 96.0073C19.475 96.3646 20.2373 96.3646 20.8561 96.0073L34.3285 88.2291L36.3285 91.6932L22.8561 99.4714C20.9997 100.543 18.7126 100.543 16.8562 99.4714L5.38379 92.8479C3.52738 91.7761 2.38379 89.7953 2.38379 87.6517V74.4046C2.38379 72.261 3.52738 70.2802 5.38379 69.2084L16.8562 62.5849Z" fill="#776F3B"/>
<path fill-rule="evenodd" clip-rule="evenodd" d="M9.93375 85.1197C10.486 84.1631 11.7092 83.8354 12.6658 84.3877L20.402 88.8542C21.3586 89.4064 21.6863 90.6296 21.134 91.5862C20.5817 92.5428 19.3586 92.8705 18.402 92.3183L10.6658 87.8518C9.70922 87.2995 9.38146 86.0763 9.93375 85.1197Z" fill="#B8AE6D"/>
<path fill-rule="evenodd" clip-rule="evenodd" d="M56.4275 59.0001C56.9798 58.0435 58.203 57.7158 59.1596 58.268L66.8958 62.7345C67.8523 63.2868 68.1801 64.51 67.6278 65.4666C67.0755 66.4232 65.8523 66.7509 64.8958 66.1986L57.1596 61.7321C56.203 61.1799 55.8752 59.9567 56.4275 59.0001Z" fill="#B8AE6D"/>
<path fill-rule="evenodd" clip-rule="evenodd" d="M63.7446 36.0043C65.601 34.9325 67.8882 34.9325 69.7446 36.0043L83.2169 43.7826L81.2169 47.2467L67.7446 39.4684C67.1258 39.1111 66.3634 39.1111 65.7446 39.4684L54.2722 46.092C53.6534 46.4492 53.2722 47.1095 53.2722 47.824V63.3806H49.2722V47.824C49.2722 45.6804 50.4158 43.6997 52.2722 42.6279L63.7446 36.0043ZM65.7446 70.5815L81.2169 61.6485L83.2169 65.1126L67.7446 74.0456L65.7446 70.5815Z" fill="#776F3B"/>
<path fill-rule="evenodd" clip-rule="evenodd" d="M66.7449 8.29883C67.8494 8.29883 68.7449 9.19426 68.7449 10.2988V29.9433C68.7449 31.0479 67.8494 31.9433 66.7449 31.9433C65.6403 31.9433 64.7449 31.0479 64.7449 29.9433V10.2988C64.7449 9.19426 65.6403 8.29883 66.7449 8.29883Z" fill="#B8AE6D"/>
<path fill-rule="evenodd" clip-rule="evenodd" d="M16.1487 34.3555C17.2533 34.3555 18.1487 35.2509 18.1487 36.3555V56C18.1487 57.1045 17.2533 58 16.1487 58C15.0442 58 14.1487 57.1045 14.1487 56V36.3555C14.1487 35.2509 15.0442 34.3555 16.1487 34.3555ZM23.0758 34.3555C24.1804 34.3555 25.0758 35.2509 25.0758 36.3555V56C25.0758 57.1045 24.1804 58 23.0758 58C21.9713 58 21.0758 57.1045 21.0758 56V36.3555C21.0758 35.2509 21.9713 34.3555 23.0758 34.3555Z" fill="#B8AE6D"/>
<path fill-rule="evenodd" clip-rule="evenodd" d="M69.9752 93.7381C70.7562 92.9571 72.0226 92.9571 72.8036 93.7381L87.3524 108.287C88.1334 109.068 88.1334 110.334 87.3524 111.115C86.5713 111.896 85.305 111.896 84.524 111.115L69.9752 96.5666C69.1941 95.7855 69.1941 94.5192 69.9752 93.7381Z" fill="#B8AE6D"/>
<path fill-rule="evenodd" clip-rule="evenodd" d="M47.8613 62.5849C49.7177 61.5131 52.0049 61.5131 53.8613 62.5849L65.3336 69.2084C67.19 70.2802 68.3336 72.261 68.3336 74.4046V87.6517C68.3336 89.7953 67.19 91.7761 65.3336 92.8479L53.8613 99.4714C52.0049 100.543 49.7177 100.543 47.8613 99.4714L36.3889 92.8479C34.5325 91.7761 33.3889 89.7953 33.3889 87.6517V74.4046C33.3889 72.261 34.5325 70.2802 36.3889 69.2084L47.8613 62.5849ZM51.8613 66.049C51.2425 65.6917 50.4801 65.6917 49.8613 66.049L38.3889 72.6725C37.7701 73.0298 37.3889 73.69 37.3889 74.4046V87.6517C37.3889 88.3662 37.7701 89.0265 38.3889 89.3838L49.8613 96.0073C50.4801 96.3646 51.2425 96.3646 51.8613 96.0073L63.3336 89.3838C63.9524 89.0265 64.3336 88.3662 64.3336 87.6517V74.4046C64.3336 73.69 63.9524 73.0298 63.3336 72.6725L51.8613 66.049Z" fill="#776F3B"/>
<path fill-rule="evenodd" clip-rule="evenodd" d="M94.7504 36.0043C96.6068 34.9325 98.894 34.9325 100.75 36.0043L112.223 42.6279C114.079 43.6997 115.223 45.6804 115.223 47.824V61.0712C115.223 63.2147 114.079 65.1955 112.223 66.2673L100.75 72.8909C98.894 73.9627 96.6068 73.9627 94.7504 72.8909L83.2781 66.2673C81.4217 65.1955 80.2781 63.2147 80.2781 61.0712V47.824C80.2781 45.6804 81.4217 43.6997 83.2781 42.6279L94.7504 36.0043ZM98.7504 39.4684C98.1316 39.1111 97.3692 39.1111 96.7504 39.4684L85.2781 46.092C84.6593 46.4492 84.2781 47.1095 84.2781 47.824V61.0712C84.2781 61.7857 84.6593 62.4459 85.2781 62.8032L96.7504 69.4268C97.3692 69.784 98.1316 69.784 98.7504 69.4268L110.223 62.8032C110.842 62.4459 111.223 61.7857 111.223 61.0712V47.824C111.223 47.1095 110.842 46.4492 110.223 46.092L98.7504 39.4684Z" fill="#776F3B"/>
</svg>
