<svg width="50" height="50" viewBox="0 0 50 50" fill="none" xmlns="http://www.w3.org/2000/svg">
<g id="icon15">
<path id="Rectangle 21" d="M23.4818 47.7284V42.8827C23.4818 42.3304 23.0341 41.8827 22.4818 41.8827H9.78428C5.91905 41.8827 2.78535 38.7499 2.78427 34.8846L2.77697 8.66869C2.7759 4.80194 5.91022 1.66675 9.77697 1.66675H40.2646C44.1313 1.66675 47.2657 4.80194 47.2646 8.66869L47.2573 34.8846C47.2562 38.7498 44.1225 41.8827 40.2573 41.8826L27.775 41.8826" stroke="#0F256D" stroke-width="2" stroke-linecap="round"/>
<path id="Vector 44" d="M13.271 29.3215L9.12179 13.0315C8.99551 12.5357 9.26058 12.0286 9.74738 11.8712C11.9362 11.1634 18.0913 9.39672 25 9.39673C31.9087 9.39674 38.0639 11.1634 40.2527 11.8712C40.7395 12.0286 41.0045 12.5357 40.8782 13.0315L36.729 29.3215C36.5668 29.9587 35.8383 30.2812 35.2393 30.0102C33.3672 29.1629 29.4498 27.6773 25 27.6773C20.5502 27.6773 16.6329 29.1629 14.7607 30.0102C14.1617 30.2812 13.4333 29.9587 13.271 29.3215Z" stroke="#00DEFC" stroke-width="2" stroke-linejoin="round"/>
<path id="Vector 45" d="M16.168 14.624L20.6463 14.624M33.8319 14.624L23.645 14.624M19.9786 18.8751H30.3311M16.168 23.0761H27.2781M33.8319 23.0761H30.3311" stroke="#00DEFC" stroke-width="2" stroke-linecap="round" stroke-linejoin="round"/>
<ellipse id="Ellipse 10" cx="12.45" cy="36.3416" rx="1.3416" ry="1.3416" fill="#0F256D"/>
<ellipse id="Ellipse 11" cx="17.6331" cy="36.3416" rx="1.3416" ry="1.3416" fill="#0F256D"/>
<circle id="Ellipse 12" cx="37.8165" cy="36.3416" r="1.3416" fill="#0F256D"/>
</g>
</svg>
