<svg width="60" height="60" viewBox="0 0 60 60" fill="none" xmlns="http://www.w3.org/2000/svg">
<g id="icon4">
<path id="Vector 14" d="M35.3421 38.7592C17.6704 53.2421 5.01696 21.0729 27.3141 26.9306M31.0666 24.7395C34.1927 23.5334 33.6401 16.6097 37.8672 17.7201C42.0944 18.8305 44.3215 27.2413 37.8672 34.5016" stroke="#FC006B" stroke-width="2" stroke-linecap="round" stroke-linejoin="round"/>
<path id="Vector 16" d="M16.8928 21.7184L18 26.968M14.9149 43.7492L18.8705 39.6287M32.6055 46.2215L30.5727 41.6615M45.5163 32.6514L40.352 30.968M34.0001 12.968L36.0001 17.7628M41.5057 21.7184L46.4502 19.9604" stroke="#FC006B" stroke-width="2" stroke-linecap="round" stroke-linejoin="round"/>
<path id="Ellipse 5" d="M49.1512 46.0697C52.9775 41.5097 55.0511 35.7342 54.9992 29.7818C54.9472 23.8295 52.7731 18.091 48.8679 13.5985C44.9626 9.10605 39.5825 6.15445 33.6954 5.2746C27.8082 4.39476 21.8002 5.64441 16.7521 8.7988" stroke="#257FDC" stroke-width="2" stroke-linecap="round"/>
<path id="Ellipse 7" d="M10.8489 13.9303C7.02264 18.4903 4.94901 24.2658 5.00095 30.2182C5.0529 36.1705 7.22702 41.909 11.1323 46.4015C15.0375 50.8939 20.4176 53.8456 26.3048 54.7254C32.192 55.6052 38.1999 54.3556 43.248 51.2012" stroke="#257FDC" stroke-width="2" stroke-linecap="round"/>
<path id="Vector 15" d="M16.6489 8.96802L43.2161 51.1757" stroke="#257FDC" stroke-width="2" stroke-linecap="round" stroke-linejoin="round"/>
<ellipse id="Ellipse 8" cx="24.4712" cy="34.8457" rx="3.60189" ry="2.88431" transform="rotate(30.2312 24.4712 34.8457)" stroke="#FC006B" stroke-width="2"/>
</g>
</svg>
