<svg width="60" height="60" viewBox="0 0 60 60" fill="none" xmlns="http://www.w3.org/2000/svg">
<g id="icon7">
<path id="Rectangle 17" d="M43.9935 38.2404C38.8089 37.2658 34.0302 38.12 30 39.6512M50.1548 27.3228C41.0967 28.233 32.821 31.7293 26 35.7608M31.8891 25.5803C35.2602 24.956 35.7698 22 35.7698 22M39.09 44.3331C42.911 43.0603 45.3736 46.9308 45.3736 46.9308M7.12622 50.8855C7.12622 50.8855 12.5686 44.7364 21.404 38.6903M17.4825 47.8109C17.4825 47.8109 20.3557 44.7368 25.0875 42M4.05176 39.8819C4.05176 39.8819 9.92699 37.8135 16.4796 33.2763M32.2117 14.2437C29.81 20.8483 25.39 26.0542 20.7524 30" stroke="#257FDC" stroke-width="2" stroke-linecap="round"/>
<path id="Vector 21" d="M23.6672 16.9079C28.3119 9.40478 35.4446 2.66434 37.0695 16.9079C38.035 25.3716 53.4757 18.24 56.048 24.3912C58.6204 30.5424 42.7392 32.22 49.114 46.9828" stroke="#257FDC" stroke-width="2" stroke-linecap="round" stroke-linejoin="round"/>
<path id="Vector 20" d="M3.66724 13.2433L43.6672 53.2433" stroke="#FC006B" stroke-width="2" stroke-linecap="round" stroke-linejoin="round"/>
</g>
</svg>
