<svg width="51" height="50" viewBox="0 0 51 50" fill="none" xmlns="http://www.w3.org/2000/svg">
<g id="icon9" clip-path="url(#clip0_502_1178)">
<path id="Vector 12" d="M9.23279 41.8458C9.23279 41.8458 18.5318 38.294 15.1245 32.9325C10.5462 24.4542 10.1391 11.5518 12.2541 5.28223C12.2541 5.28223 15.1245 6.30518 21.3678 11.5386C21.3678 11.5386 23.58 10.8738 27.6944 10.8738C31.8087 10.8738 34.0919 11.5386 34.0919 11.5386C40.3352 6.30518 43.2056 5.28223 43.2056 5.28223C45.3207 11.5518 44.9135 24.4542 40.3352 32.9325M18.143 22.9374C19.2531 20.3707 24.1372 20.3707 24.1372 23.8885M37.8029 22.9374C36.6928 20.3707 31.8087 20.3707 31.8087 23.8885" stroke="#0F256D" stroke-width="2" stroke-linecap="round" stroke-linejoin="round"/>
<path id="Vector 27" d="M2.43049 13.3332L5.41588 11.6665L3.60902 16.6665L6.59441 14.9998M1.89117 24.6071L4.87656 22.9404L3.0697 27.9404L6.05509 26.2738" stroke="#FC006B" stroke-width="2" stroke-linecap="round" stroke-linejoin="round"/>
<path id="Vector 26" opacity="0.9" d="M28.1094 40.3709C28.1094 50.6446 38.336 41.8456 47.889 45.1573M28.1094 39.9361C39.4187 40.0001 32.6043 26.6667 28.1095 26.6582C23.6146 26.6497 16.8002 39.8721 28.1094 39.9361Z" stroke="#FC006B" stroke-width="2" stroke-linecap="round" stroke-linejoin="round"/>
</g>
<defs>
<clipPath id="clip0_502_1178">
<rect width="50" height="50" fill="white" transform="translate(0.5)"/>
</clipPath>
</defs>
</svg>
