<svg width="50" height="50" viewBox="0 0 50 50" fill="none" xmlns="http://www.w3.org/2000/svg">
<g id="icon16">
<path id="Vector 46" d="M9.16993 2.62524V33.4844C9.16993 36.5467 11.6525 39.0293 14.7149 39.0293V39.0293C17.7772 39.0293 20.2598 36.5467 20.2598 33.4844V2.62524M9.16993 2.62524H5.7373M9.16993 2.62524L20.2598 2.62524M20.2598 2.62524H23.6924" stroke="#0F256D" stroke-width="2" stroke-linecap="round" stroke-linejoin="round"/>
<path id="Vector 47" d="M29.7402 10.9707V41.8298C29.7402 44.8922 32.2228 47.3748 35.2852 47.3748V47.3748C38.3476 47.3748 40.8301 44.8922 40.8301 41.8298V10.9707M29.7402 10.9707H26.3076M29.7402 10.9707L40.8301 10.9707M40.8301 10.9707H44.2627" stroke="#0F256D" stroke-width="2" stroke-linecap="round" stroke-linejoin="round"/>
<path id="Rectangle 26" d="M12.0637 8.77078C12.0637 8.77078 13.6007 8.11567 14.645 8.11567C15.6894 8.11567 17.3658 8.77078 17.3658 8.77078V33.3117C17.3658 34.7759 16.1789 35.9628 14.7148 35.9628C13.2506 35.9628 12.0637 34.7759 12.0637 33.3117V8.77078Z" fill="#00DEFC"/>
<path id="Rectangle 27" d="M32.6343 17.116C32.6343 17.116 34.1712 16.4609 35.2156 16.4609C36.2599 16.4609 37.9364 17.116 37.9364 17.116V41.6569C37.9364 43.1211 36.7495 44.308 35.2853 44.308C33.8212 44.308 32.6343 43.1211 32.6343 41.6569V17.116Z" fill="#00DEFC"/>
</g>
</svg>
