<svg width="60" height="60" viewBox="0 0 60 60" fill="none" xmlns="http://www.w3.org/2000/svg">
<g id="icon6">
<path id="Vector 19" d="M7.46966 13.2018C19.8761 11.6256 29.9999 3.74457 29.9999 3.74457C29.9999 3.74457 40.1237 11.6256 52.5302 13.2018C52.5302 13.2018 58.8825 49.1092 29.9999 56.2554C1.11739 49.1092 7.46966 13.2018 7.46966 13.2018Z" stroke="#257FDC" stroke-width="2" stroke-linecap="round" stroke-linejoin="round"/>
<path id="Union" d="M26.1759 26.528H19.7729C18.6684 26.528 17.7729 27.4235 17.7729 28.528V31.472C17.7729 32.5766 18.6684 33.472 19.7729 33.472H24.1759C25.2805 33.472 26.1759 34.3674 26.1759 35.472V39.8751C26.1759 40.9796 27.0714 41.8751 28.1759 41.8751H31.1199C32.2245 41.8751 33.1199 40.9796 33.1199 39.8751V35.472C33.1199 34.3674 34.0153 33.472 35.1199 33.472H39.523C40.6276 33.472 41.523 32.5766 41.523 31.472V28.528C41.523 27.4235 40.6276 26.528 39.523 26.528H35.1199C34.0153 26.528 33.1199 25.6326 33.1199 24.528V20.125C33.1199 19.0204 32.2245 18.125 31.1199 18.125H28.1759C27.0714 18.125 26.1759 19.0204 26.1759 20.125V21.3845" stroke="#FC006B" stroke-width="2" stroke-linecap="round"/>
</g>
</svg>
