<svg width="50" height="50" viewBox="0 0 50 50" fill="none" xmlns="http://www.w3.org/2000/svg">
<g id="no water">
<path id="Subtract" fill-rule="evenodd" clip-rule="evenodd" d="M25.9999 6.6665C25.9999 6.11422 25.5522 5.6665 24.9999 5.6665C24.4477 5.6665 23.9999 6.11422 23.9999 6.6665C23.9999 8.47534 23.246 10.3409 21.989 12.3383C20.8163 14.2019 19.273 16.0797 17.6526 18.0513L17.6048 18.1095L19.0258 19.5305L19.2184 19.2961L19.2185 19.2961C20.8164 17.3524 22.4384 15.3794 23.6818 13.4035C24.1824 12.6079 24.6325 11.7957 24.9999 10.9674C25.3674 11.7957 25.8174 12.6079 26.3181 13.4035C27.5615 15.3794 29.1835 17.3524 30.7815 19.2961L30.7815 19.2961L31.1536 19.7489C32.8904 21.8646 34.5723 23.9554 35.8253 26.0972C37.0755 28.2342 37.853 30.3481 37.853 32.4998C37.853 34.3909 37.4467 35.9515 36.7241 37.2289L38.1804 38.6852C39.2527 37.0169 39.853 34.9596 39.853 32.4998C39.853 29.8599 38.899 27.3904 37.5516 25.0873C36.2072 22.7891 34.4259 20.583 32.6994 18.4799L32.3473 18.0513L32.3473 18.0513C30.7269 16.0797 29.1836 14.2019 28.0109 12.3383C26.7539 10.3409 25.9999 8.47534 25.9999 6.6665ZM35.3863 41.5479L33.9441 40.1057C31.685 41.5493 28.5624 42.2432 24.9999 42.2432C21.286 42.2432 18.0501 41.489 15.7722 39.9175C13.5472 38.3825 12.1469 36.0106 12.1469 32.4998C12.1469 30.3481 12.9244 28.2342 14.1745 26.0972C14.8487 24.9449 15.647 23.8073 16.5112 22.6727L15.0844 21.246C14.1244 22.4951 13.2152 23.7762 12.4482 25.0873C11.1009 27.3904 10.1469 29.8599 10.1469 32.4998C10.1469 36.6399 11.8476 39.6397 14.6365 41.5637C17.3724 43.4512 21.0631 44.2432 24.9999 44.2432C28.9368 44.2432 32.6275 43.4512 35.3634 41.5637C35.3711 41.5584 35.3787 41.5532 35.3863 41.5479Z" fill="#0F256D"/>
<path id="Vector 20" d="M8.33331 8.3335L41.6666 41.6668" stroke="#FC006B" stroke-width="2" stroke-linecap="round" stroke-linejoin="round"/>
</g>
</svg>
