<svg width="60" height="60" viewBox="0 0 60 60" fill="none" xmlns="http://www.w3.org/2000/svg">
<g id="icon3">
<path id="Vector 10" d="M4.92665 14.1934C10.7544 3.1625 25.567 7.07598 30 14.904C34.4331 7.07598 49.2456 3.16246 55.0733 14.1933C59.9475 23.4192 56.8836 39.816 30 52.6273C3.11637 39.816 0.0524845 23.4193 4.92665 14.1934Z" stroke="#257FDC" stroke-width="2" stroke-linecap="round" stroke-linejoin="round"/>
<path id="2" d="M23.716 23.2539C25.4667 22.0579 27.4254 21.4599 29.592 21.4599C31.4467 21.4599 32.946 21.8932 34.09 22.7599C35.234 23.6092 35.806 24.8312 35.806 26.4259C35.806 27.7606 35.364 28.9046 34.48 29.8579C33.6134 30.7939 32.426 31.7126 30.918 32.6139C30.7967 32.6832 30.5714 32.8132 30.242 33.0039C29.93 33.1946 29.7047 33.3332 29.566 33.4199C29.4447 33.4892 29.2454 33.6106 28.968 33.7839C28.6907 33.9572 28.4827 34.0872 28.344 34.1739C28.2227 34.2606 28.0494 34.3906 27.824 34.5639C27.616 34.7199 27.46 34.8586 27.356 34.9799C27.252 35.0839 27.1307 35.2226 26.992 35.3959C26.8534 35.5519 26.7494 35.6992 26.68 35.8379C26.628 35.9766 26.576 36.1326 26.524 36.3059C26.472 36.4792 26.446 36.6526 26.446 36.8259L35.936 36.7999V39.4779H23.118V38.1259C23.118 37.1552 23.248 36.2972 23.508 35.5519C23.7854 34.7892 24.262 34.0959 24.938 33.4719C25.6314 32.8306 26.1687 32.3799 26.55 32.1199C26.9314 31.8426 27.6074 31.4179 28.578 30.8459C28.6647 30.7766 28.734 30.7246 28.786 30.6899C28.8554 30.6552 28.9247 30.6206 28.994 30.5859C30.45 29.7366 31.386 29.1212 31.802 28.7399C32.4954 28.0639 32.842 27.3099 32.842 26.4779C32.842 25.7152 32.53 25.1346 31.906 24.7359C31.2994 24.3372 30.4414 24.1379 29.332 24.1379C27.408 24.1379 25.536 24.7966 23.716 26.1139V23.2539Z" fill="#FC006B"/>
<path id="Vector 17" d="M14.9871 20.244L19.1052 23.7564M14 31.5081H19.1052M44.7223 20.244L40.6042 23.7564M45.7094 31.5081H40.6042" stroke="#FC006B" stroke-width="2" stroke-linecap="round" stroke-linejoin="round"/>
</g>
</svg>
