<svg width="120" height="120" viewBox="0 0 120 120" fill="none" xmlns="http://www.w3.org/2000/svg">
<g id="icon2-2" clip-path="url(#clip0_336_2596)">
<path id="Ellipse 13 (Stroke)" fill-rule="evenodd" clip-rule="evenodd" d="M25.59 35.1301C17.7757 35.1301 11.441 41.4648 11.441 49.2791C11.441 57.0933 17.7757 63.428 25.59 63.428C33.4042 63.428 39.7389 57.0933 39.7389 49.2791C39.7389 41.4648 33.4042 35.1301 25.59 35.1301ZM7.44104 49.2791C7.44104 39.2557 15.5666 31.1301 25.59 31.1301C35.6133 31.1301 43.7389 39.2557 43.7389 49.2791C43.7389 59.3024 35.6133 67.428 25.59 67.428C15.5666 67.428 7.44104 59.3024 7.44104 49.2791Z" fill="#A45F36"/>
<path id="Vector 55 (Stroke)" fill-rule="evenodd" clip-rule="evenodd" d="M18.1538 41.8426C18.9348 41.0616 20.2012 41.0616 20.9822 41.8426L33.0265 53.8869C33.8075 54.6679 33.8075 55.9343 33.0265 56.7153C32.2454 57.4964 30.9791 57.4964 30.198 56.7153L18.1538 44.671C17.3727 43.89 17.3727 42.6237 18.1538 41.8426Z" fill="#CBA38B"/>
<path id="Vector 56 (Stroke)" fill-rule="evenodd" clip-rule="evenodd" d="M32.0286 95.9033C31.6044 94.8834 32.0872 93.7128 33.1071 93.2886L48.834 86.7469C49.8539 86.3227 51.0245 86.8056 51.4487 87.8255C51.8729 88.8453 51.3901 90.016 50.3702 90.4402L34.6433 96.9818C33.6234 97.406 32.4528 96.9231 32.0286 95.9033Z" fill="#CBA38B"/>
<path id="Ellipse 14 (Stroke)" fill-rule="evenodd" clip-rule="evenodd" d="M28.6588 86.4695C25.6791 93.6933 29.1196 101.965 36.3435 104.945C43.5673 107.924 51.8389 104.484 54.8186 97.2599C57.7983 90.036 54.3577 81.7645 47.1339 78.7848C39.91 75.8051 31.6384 79.2457 28.6588 86.4695ZM34.8182 108.642C25.5522 104.82 21.1389 94.2103 24.961 84.9442C28.783 75.6782 39.3931 71.2649 48.6591 75.087C57.9252 78.9091 62.3384 89.5191 58.5164 98.7851C54.6943 108.051 44.0843 112.464 34.8182 108.642Z" fill="#A45F36"/>
<path id="Vector 46 (Stroke)" fill-rule="evenodd" clip-rule="evenodd" d="M92.4604 107.512C92.8744 108.536 94.0402 109.031 95.0642 108.616L111.053 102.152C112.077 101.738 112.571 100.572 112.157 99.5481C111.743 98.5241 110.577 98.0296 109.553 98.4436L103.413 100.926L97.8401 87.1421C97.4261 86.1181 96.2603 85.6236 95.2363 86.0376C94.2122 86.4517 93.7177 87.6174 94.1318 88.6415L99.705 102.426L93.5649 104.908C92.5408 105.322 92.0463 106.488 92.4604 107.512ZM77.2364 88.6962C77.6504 89.7203 78.8162 90.2147 79.8403 89.8007L108.77 78.1037C109.794 77.6897 110.289 76.5239 109.875 75.4999C109.461 74.4758 108.295 73.9813 107.271 74.3954L103.594 75.8819L85.6531 31.508C83.997 27.4119 79.3338 25.4339 75.2377 27.0901L73.7201 27.7036L65.063 6.2919C64.6489 5.26787 63.4831 4.77337 62.4591 5.18741C61.4351 5.60144 60.9406 6.76723 61.3546 7.79126L70.0118 29.203L68.4943 29.8165C64.3981 31.4727 62.4201 36.1358 64.0763 40.232L82.0175 84.6058L78.3409 86.0924C77.3169 86.5064 76.8224 87.6722 77.2364 88.6962ZM85.7259 83.1065L67.7846 38.7326C66.9566 36.6846 67.9456 34.353 69.9936 33.5249L76.737 30.7984C78.7851 29.9703 81.1167 30.9593 81.9447 33.0074L99.886 77.3813L85.7259 83.1065Z" fill="#A45F36"/>
<path id="Rectangle 28" d="M72.2965 41.9359L85.6259 74.9034C86.6703 77.4865 89.611 78.7338 92.194 77.6894C94.7771 76.645 96.0245 73.7044 94.9801 71.1213L83.256 42.1243C83.256 42.1243 80.4402 40.7205 77.7996 40.6751C75.1589 40.6296 72.2965 41.9359 72.2965 41.9359Z" fill="#CBA38B"/>
</g>
<defs>
<clipPath id="clip0_336_2596">
<rect width="120" height="120" fill="white"/>
</clipPath>
</defs>
</svg>
